# xmcd
#
# Track frame offsets: 
#        150
#        15464
#        30401
#        43666
#        62607
#        83081
#        98976
#        113304
#        132679
#        148613
#        165790
#        180057
#        195962
#        209368
#
# Disc length: 3008 seconds
#
# Revision: 0
# Processed by: cddbd v1.5.2PL0 Copyright (c) Steve Scherf et al.
# Submitted via: ExactAudioCopy v0.99pb5
#
DISCID=a20bbe0e
DTITLE=Burke Solomon - Nashville
DYEAR=2006
DGENRE=
TTITLE0=That's How I Got to Memphis
TTITLE1=Seems Like You're Gonna Take Me Back
TTITLE2=Tomorrow Is Forever
TTITLE3=Ain't Got You
TTITLE4=Valley of Tears
TTITLE5=Honey Where's the Money Gone
TTITLE6=Atta Way to Go
TTITLE7=Millionaire
TTITLE8=Up to the Mountain
TTITLE9=Does My Ring Burn Your Finge
TTITLE10=Vicious Circle
TTITLE11=We're Gonna Hold On
TTITLE12=You're the Kind of Trouble
TTITLE13='Til I Get It Right
EXTD=
EXTT0=
EXTT1=
EXTT2=
EXTT3=
EXTT4=
EXTT5=
EXTT6=
EXTT7=
EXTT8=
EXTT9=
EXTT10=
EXTT11=
EXTT12=
EXTT13=
PLAYORDER=
